<?xml version="1.0" encoding="utf-8"?>
<!-- Generator: Adobe Illustrator 24.1.2, SVG Export Plug-In . SVG Version: 6.00 Build 0)  -->
<svg version="1.1" id="Слой_1" xmlns="http://www.w3.org/2000/svg" xmlns:xlink="http://www.w3.org/1999/xlink" x="0px" y="0px"
	 viewBox="0 0 1000 250" style="enable-background:new 0 0 1000 250;" xml:space="preserve">
<style type="text/css">
	.st0{fill:none;stroke:#FFD600;stroke-width:10;stroke-linecap:round;stroke-linejoin:round;stroke-miterlimit:10;}
	.st1{fill:#4A148C;stroke:#4A148C;stroke-width:8;stroke-linecap:round;stroke-linejoin:round;stroke-miterlimit:10;}
	.st2{fill:#7B1FA2;stroke:#7B1FA2;stroke-width:8;stroke-linecap:round;stroke-linejoin:round;stroke-miterlimit:10;}
	.st3{fill:none;stroke:#FFD600;stroke-width:3;stroke-linecap:round;stroke-linejoin:round;stroke-miterlimit:10;}
	.st4{fill:#FFD600;}
	.st5{font-family:'MyriadPro-Regular';}
	.st6{font-size:149.1295px;}
	.st7{fill:none;stroke:#FFD600;stroke-linecap:round;stroke-linejoin:round;stroke-miterlimit:10;}
</style>
<g>
	<circle class="st0" cx="464.5" cy="123.45" r="46.5"/>
	<line class="st0" x1="534" y1="230.95" x2="488.66" y2="163.19"/>
	<path class="st1" d="M399.03,89.32l18.31,50.51c27.78-58.71,85.23-49.87,85.23-49.87l-30.93-39.77"/>
	<path class="st2" d="M443.85,81.74c11.99-19.57,38.51-49.24,38.51-49.24s-31.57-6.31-61.87,4.42c0,0-20.83,13.89-42.93,53.03
		c0,0,44.19-6.94,65.03-7.58"/>
	<polyline class="st3" points="402.82,136.67 404.87,86.06 431.22,53.97 	"/>
</g>
<text transform="matrix(1 0 0 1 78.8008 174.5762)" class="st4 st5 st6">P r o</text>
<g>
	<text transform="matrix(1 0 0 1 558.6802 174.5762)" class="st4 st5 st6">n e c t</text>
</g>
<polyline class="st7" points="402.5,135.54 402.5,126.07 397.45,135.54 "/>
<polyline class="st7" points="403.76,135.54 402.5,126.07 405.66,135.54 "/>
<line class="st7" x1="406.29" y1="134.91" x2="403.13" y2="126.7"/>
<line class="st7" x1="406.92" y1="135.86" x2="403.13" y2="125.76"/>
<line class="st7" x1="402.5" y1="125.76" x2="396.82" y2="135.86"/>
<line class="st7" x1="399.97" y1="135.23" x2="402.5" y2="126.39"/>
<line class="st7" x1="401.24" y1="134.91" x2="403.13" y2="126.7"/>
<line class="st7" x1="399.34" y1="135.23" x2="402.5" y2="126.39"/>
<line class="st7" x1="401.24" y1="135.86" x2="403.13" y2="125.76"/>
</svg>
