<svg width="56" height="18" viewBox="0 0 56 18" fill="none" xmlns="http://www.w3.org/2000/svg">
<path d="M32.5 13H31.408L27.016 6.34V13H25.924V4.624H27.016L31.408 11.272V4.624H32.5V13ZM35.4535 5.524V8.32H38.5015V9.22H35.4535V12.1H38.8615V13H34.3615V4.624H38.8615V5.524H35.4535ZM40.1058 8.812C40.1058 7.996 40.2898 7.264 40.6578 6.616C41.0258 5.96 41.5258 5.448 42.1578 5.08C42.7978 4.712 43.5058 4.528 44.2818 4.528C45.1938 4.528 45.9898 4.748 46.6698 5.188C47.3498 5.628 47.8458 6.252 48.1578 7.06H46.8498C46.6178 6.556 46.2818 6.168 45.8418 5.896C45.4098 5.624 44.8898 5.488 44.2818 5.488C43.6978 5.488 43.1738 5.624 42.7098 5.896C42.2458 6.168 41.8818 6.556 41.6178 7.06C41.3538 7.556 41.2218 8.14 41.2218 8.812C41.2218 9.476 41.3538 10.06 41.6178 10.564C41.8818 11.06 42.2458 11.444 42.7098 11.716C43.1738 11.988 43.6978 12.124 44.2818 12.124C44.8898 12.124 45.4098 11.992 45.8418 11.728C46.2818 11.456 46.6178 11.068 46.8498 10.564H48.1578C47.8458 11.364 47.3498 11.984 46.6698 12.424C45.9898 12.856 45.1938 13.072 44.2818 13.072C43.5058 13.072 42.7978 12.892 42.1578 12.532C41.5258 12.164 41.0258 11.656 40.6578 11.008C40.2898 10.36 40.1058 9.628 40.1058 8.812ZM54.9314 4.636V5.524H52.6514V13H51.5594V5.524H49.2674V4.636H54.9314Z" fill="#FFD600"/>
<path d="M0.96 13V4.6H4.176C4.68 4.6 5.128 4.7 5.52 4.9C5.92 5.092 6.236 5.368 6.468 5.728C6.7 6.088 6.816 6.524 6.816 7.036V7.192C6.816 7.696 6.696 8.132 6.456 8.5C6.224 8.86 5.908 9.136 5.508 9.328C5.108 9.52 4.664 9.616 4.176 9.616H1.968V13H0.96ZM1.968 8.704H4.068C4.604 8.704 5.028 8.572 5.34 8.308C5.652 8.036 5.808 7.656 5.808 7.168V7.048C5.808 6.56 5.652 6.184 5.34 5.92C5.036 5.648 4.612 5.512 4.068 5.512H1.968V8.704ZM8.16703 13V4.6H11.563C12.083 4.6 12.539 4.692 12.931 4.876C13.331 5.052 13.643 5.308 13.867 5.644C14.091 5.972 14.203 6.368 14.203 6.832V6.964C14.203 7.516 14.071 7.952 13.807 8.272C13.543 8.592 13.231 8.808 12.871 8.92V9.088C13.159 9.096 13.395 9.192 13.579 9.376C13.771 9.552 13.867 9.82 13.867 10.18V13H12.871V10.3C12.871 10.06 12.803 9.876 12.667 9.748C12.539 9.62 12.343 9.556 12.079 9.556H9.17503V13H8.16703ZM9.17503 8.644H11.467C12.019 8.644 12.443 8.512 12.739 8.248C13.043 7.976 13.195 7.6 13.195 7.12V7.036C13.195 6.556 13.047 6.184 12.751 5.92C12.455 5.648 12.027 5.512 11.467 5.512H9.17503V8.644ZM18.7853 13.168C17.7853 13.168 16.9853 12.88 16.3853 12.304C15.7933 11.72 15.4973 10.872 15.4973 9.76V7.84C15.4973 6.728 15.7933 5.884 16.3853 5.308C16.9853 4.724 17.7853 4.432 18.7853 4.432C19.7933 4.432 20.5933 4.724 21.1853 5.308C21.7853 5.884 22.0853 6.728 22.0853 7.84V9.76C22.0853 10.872 21.7853 11.72 21.1853 12.304C20.5933 12.88 19.7933 13.168 18.7853 13.168ZM18.7853 12.268C19.5133 12.268 20.0773 12.052 20.4773 11.62C20.8773 11.18 21.0773 10.572 21.0773 9.796V7.804C21.0773 7.028 20.8773 6.424 20.4773 5.992C20.0773 5.552 19.5133 5.332 18.7853 5.332C18.0653 5.332 17.5053 5.552 17.1053 5.992C16.7053 6.424 16.5053 7.028 16.5053 7.804V9.796C16.5053 10.572 16.7053 11.18 17.1053 11.62C17.5053 12.052 18.0653 12.268 18.7853 12.268ZM26.8127 13.168C25.8127 13.168 25.0127 12.88 24.4127 12.304C23.8207 11.72 23.5247 10.872 23.5247 9.76V7.84C23.5247 6.728 23.8207 5.884 24.4127 5.308C25.0127 4.724 25.8127 4.432 26.8127 4.432C27.8207 4.432 28.6207 4.724 29.2127 5.308C29.8127 5.884 30.1127 6.728 30.1127 7.84V9.76C30.1127 10.872 29.8127 11.72 29.2127 12.304C28.6207 12.88 27.8207 13.168 26.8127 13.168ZM26.8127 12.268C27.5407 12.268 28.1047 12.052 28.5047 11.62C28.9047 11.18 29.1047 10.572 29.1047 9.796V7.804C29.1047 7.028 28.9047 6.424 28.5047 5.992C28.1047 5.552 27.5407 5.332 26.8127 5.332C26.0927 5.332 25.5327 5.552 25.1327 5.992C24.7327 6.424 24.5327 7.028 24.5327 7.804V9.796C24.5327 10.572 24.7327 11.18 25.1327 11.62C25.5327 12.052 26.0927 12.268 26.8127 12.268ZM27.3047 14.944C27.0087 14.944 26.7687 14.852 26.5847 14.668C26.4087 14.492 26.3207 14.248 26.3207 13.936V13H27.3047V13.756C27.3047 13.996 27.4167 14.116 27.6407 14.116H28.4327V14.944H27.3047Z" fill="white"/>
</svg>
