<svg width="61" height="21" viewBox="0 0 61 21" fill="none" xmlns="http://www.w3.org/2000/svg">
<path d="M37.5 15H36.408L32.016 8.34V15H30.924V6.624H32.016L36.408 13.272V6.624H37.5V15ZM40.4535 7.524V10.32H43.5015V11.22H40.4535V14.1H43.8615V15H39.3615V6.624H43.8615V7.524H40.4535ZM45.1058 10.812C45.1058 9.996 45.2898 9.264 45.6578 8.616C46.0258 7.96 46.5258 7.448 47.1578 7.08C47.7978 6.712 48.5058 6.528 49.2818 6.528C50.1938 6.528 50.9898 6.748 51.6698 7.188C52.3498 7.628 52.8458 8.252 53.1578 9.06H51.8498C51.6178 8.556 51.2818 8.168 50.8418 7.896C50.4098 7.624 49.8898 7.488 49.2818 7.488C48.6978 7.488 48.1738 7.624 47.7098 7.896C47.2458 8.168 46.8818 8.556 46.6178 9.06C46.3538 9.556 46.2218 10.14 46.2218 10.812C46.2218 11.476 46.3538 12.06 46.6178 12.564C46.8818 13.06 47.2458 13.444 47.7098 13.716C48.1738 13.988 48.6978 14.124 49.2818 14.124C49.8898 14.124 50.4098 13.992 50.8418 13.728C51.2818 13.456 51.6178 13.068 51.8498 12.564H53.1578C52.8458 13.364 52.3498 13.984 51.6698 14.424C50.9898 14.856 50.1938 15.072 49.2818 15.072C48.5058 15.072 47.7978 14.892 47.1578 14.532C46.5258 14.164 46.0258 13.656 45.6578 13.008C45.2898 12.36 45.1058 11.628 45.1058 10.812ZM59.9314 6.636V7.524H57.6514V15H56.5594V7.524H54.2674V6.636H59.9314Z" fill="black"/>
<path d="M0.96 15V6.6H4.176C4.68 6.6 5.128 6.7 5.52 6.9C5.92 7.092 6.236 7.368 6.468 7.728C6.7 8.088 6.816 8.524 6.816 9.036V9.192C6.816 9.696 6.696 10.132 6.456 10.5C6.224 10.86 5.908 11.136 5.508 11.328C5.108 11.52 4.664 11.616 4.176 11.616H1.968V15H0.96ZM1.968 10.704H4.068C4.604 10.704 5.028 10.572 5.34 10.308C5.652 10.036 5.808 9.656 5.808 9.168V9.048C5.808 8.56 5.652 8.184 5.34 7.92C5.036 7.648 4.612 7.512 4.068 7.512H1.968V10.704ZM8.16703 15V6.6H11.563C12.083 6.6 12.539 6.692 12.931 6.876C13.331 7.052 13.643 7.308 13.867 7.644C14.091 7.972 14.203 8.368 14.203 8.832V8.964C14.203 9.516 14.071 9.952 13.807 10.272C13.543 10.592 13.231 10.808 12.871 10.92V11.088C13.159 11.096 13.395 11.192 13.579 11.376C13.771 11.552 13.867 11.82 13.867 12.18V15H12.871V12.3C12.871 12.06 12.803 11.876 12.667 11.748C12.539 11.62 12.343 11.556 12.079 11.556H9.17503V15H8.16703ZM9.17503 10.644H11.467C12.019 10.644 12.443 10.512 12.739 10.248C13.043 9.976 13.195 9.6 13.195 9.12V9.036C13.195 8.556 13.047 8.184 12.751 7.92C12.455 7.648 12.027 7.512 11.467 7.512H9.17503V10.644ZM18.7853 15.168C17.7853 15.168 16.9853 14.88 16.3853 14.304C15.7933 13.72 15.4973 12.872 15.4973 11.76V9.84C15.4973 8.728 15.7933 7.884 16.3853 7.308C16.9853 6.724 17.7853 6.432 18.7853 6.432C19.7933 6.432 20.5933 6.724 21.1853 7.308C21.7853 7.884 22.0853 8.728 22.0853 9.84V11.76C22.0853 12.872 21.7853 13.72 21.1853 14.304C20.5933 14.88 19.7933 15.168 18.7853 15.168ZM18.7853 14.268C19.5133 14.268 20.0773 14.052 20.4773 13.62C20.8773 13.18 21.0773 12.572 21.0773 11.796V9.804C21.0773 9.028 20.8773 8.424 20.4773 7.992C20.0773 7.552 19.5133 7.332 18.7853 7.332C18.0653 7.332 17.5053 7.552 17.1053 7.992C16.7053 8.424 16.5053 9.028 16.5053 9.804V11.796C16.5053 12.572 16.7053 13.18 17.1053 13.62C17.5053 14.052 18.0653 14.268 18.7853 14.268Z" fill="black"/>
<path d="M26.4973 16.3153C25.164 16.3153 24.0973 15.9313 23.2973 15.1633C22.508 14.3846 22.1133 13.254 22.1133 11.7713V9.21131C22.1133 7.72864 22.508 6.60331 23.2973 5.83531C24.0973 5.05664 25.164 4.66731 26.4973 4.66731C27.8413 4.66731 28.908 5.05664 29.6973 5.83531C30.4973 6.60331 30.8973 7.72864 30.8973 9.21131V11.7713C30.8973 13.254 30.4973 14.3846 29.6973 15.1633C28.908 15.9313 27.8413 16.3153 26.4973 16.3153ZM26.4973 15.1153C27.468 15.1153 28.22 14.8273 28.7533 14.2513C29.2867 13.6646 29.5533 12.854 29.5533 11.8193V9.16331C29.5533 8.12864 29.2867 7.32331 28.7533 6.74731C28.22 6.16064 27.468 5.86731 26.4973 5.86731C25.5373 5.86731 24.7907 6.16064 24.2573 6.74731C23.724 7.32331 23.4573 8.12864 23.4573 9.16331V11.8193C23.4573 12.854 23.724 13.6646 24.2573 14.2513C24.7907 14.8273 25.5373 15.1153 26.4973 15.1153ZM27.1533 18.6833C26.7587 18.6833 26.4387 18.5606 26.1933 18.3153C25.9587 18.0806 25.8413 17.7553 25.8413 17.3393V16.0913H27.1533V17.0993C27.1533 17.4193 27.3027 17.5793 27.6013 17.5793H28.6573V18.6833H27.1533Z" fill="#FFD600"/>
</svg>
